<svg preserveAspectRatio="none" width="100%" height="100%" overflow="visible" style="display: block;" viewBox="0 0 49 33" fill="none" xmlns="http://www.w3.org/2000/svg">
<path id="&#226;&#128;&#156;" opacity="0.2" d="M19.6105 33H0V18.9552C0 16.4912 0.315451 14.1328 0.946352 11.88C1.6123 9.592 2.71638 7.568 4.25858 5.808C5.80079 4.048 7.81617 2.64 10.3047 1.584C12.8283 0.528 15.9303 0 19.6105 0V9.0816C17.5075 9.0816 15.755 9.328 14.353 9.8208C12.951 10.2784 11.8294 10.9472 10.9882 11.8272C10.182 12.672 9.60372 13.6928 9.25322 14.8896C8.90272 16.0864 8.72747 17.4416 8.72747 18.9552V19.6944H19.6105V33ZM49 33H29.3895V18.9552C29.3895 16.4912 29.7049 14.1328 30.3358 11.88C31.0018 9.592 32.1059 7.568 33.6481 5.808C35.1903 4.048 37.2057 2.64 39.6942 1.584C42.2178 0.528 45.3197 0 49 0V9.0816C46.897 9.0816 45.1445 9.328 43.7425 9.8208C42.3755 10.2784 41.2715 10.9472 40.4303 11.8272C39.5891 12.672 38.9932 13.6928 38.6427 14.8896C38.2922 16.0864 38.117 17.4416 38.117 18.9552V19.6944H49V33Z" fill="var(--fill-0, #D9D9D9)"/>
</svg>
